<svg xmlns="http://www.w3.org/2000/svg" xmlns:xlink="http://www.w3.org/1999/xlink" width="948" zoomAndPan="magnify" viewBox="0 0 711 707.999996" height="944" preserveAspectRatio="xMidYMid meet" version="1.0">
  <path stroke-linecap="butt" transform="matrix(1.071677, 0, 0, 1.072092, -152.752008, -175.849659)" fill-opacity="1" fill="#ffffff" fill-rule="nonzero" stroke-linejoin="miter" d="M 474.131049 820.710556 C 473.299992 820.706913 472.498094 820.557526 471.725357 820.258752 C 470.952619 819.959979 470.256426 819.53368 469.640423 818.979857 L 469.210314 818.589994 L 468.860396 818.13819 C 459.631285 806.139887 452.388692 800.48141 436.591312 792.789817 C 434.721433 791.889853 432.530795 790.851433 430.081362 789.700063 C 408.769114 779.698441 369.078834 760.970449 345.980542 733.228245 C 336.981065 722.47969 324.661004 698.009419 317.97974 684.859745 L 317.170552 683.238353 C 314.385781 684.761369 311.790549 686.557653 309.388502 688.630849 L 301.511681 695.298597 L 299.211694 685.238677 C 296.390473 672.890591 302.211519 639.741317 306.078852 629.929161 L 311.320346 616.571804 L 317.571501 629.488288 C 324.1908 643.089766 328.99854 648.121547 342.998941 659.001271 C 321.930907 623.101096 309.111483 579.130395 306.410546 533.079211 L 249.410215 533.079211 L 247.780905 531.920553 C 246.880593 531.290214 226.629037 516.628456 225.079917 491.870342 C 218.810536 487.559989 206.348321 476.170164 205.539133 453.288493 C 204.037398 452.129835 202.604917 450.894662 201.241692 449.575687 C 199.878466 448.260355 198.58814 446.868509 197.378004 445.411077 C 196.167868 443.950002 195.041566 442.43063 193.999099 440.845674 C 192.952988 439.260717 192.001646 437.624751 191.141428 435.934131 C 190.277566 434.247154 189.512118 432.512811 188.841441 430.738388 C 188.170763 428.963966 187.598499 427.160394 187.128296 425.324031 C 186.658092 423.484024 186.289949 421.629443 186.023864 419.749356 C 185.75778 417.872914 185.597401 415.98554 185.539081 414.09088 C 179.149416 409.441674 165.309395 396.980637 164.948541 375.851527 C 158.081382 370.619349 142.75056 355.910224 144.609505 329.650956 L 145.021388 323.821231 L 337.02116 323.821231 C 337.724643 323.817588 338.420835 323.912321 339.098803 324.098143 C 339.780416 324.283966 340.425579 324.557234 341.034292 324.914305 C 341.63936 325.275019 342.189754 325.704961 342.681827 326.211419 C 343.173901 326.717876 343.589429 327.282631 343.928413 327.898395 L 355.93136 350.200737 C 382.011254 314.989198 415.680013 292.439093 451.991389 285.938949 L 452.199153 280.258611 C 444.628512 279.420588 429.899113 277.56965 415.300934 274.651144 C 413.729944 274.399737 408.951364 273.321238 406.549316 268.839637 L 405.980698 267.768425 L 405.849479 266.569688 C 405.33189 261.115252 405.24441 255.657172 405.590684 250.191804 C 405.583394 249.743644 405.616199 249.299128 405.689099 248.858255 C 405.761999 248.417382 405.867704 247.98744 406.013503 247.564784 C 406.159303 247.142129 406.341552 246.737692 406.556606 246.344186 C 406.771661 245.954323 407.01952 245.586322 407.296539 245.236538 C 407.577203 244.886755 407.883382 244.56612 408.218721 244.27099 C 408.55406 243.97586 408.911269 243.709879 409.290348 243.47669 C 409.669427 243.243501 410.06673 243.043104 410.482259 242.875499 C 410.897788 242.711538 411.324251 242.584013 411.76165 242.48928 C 413.321705 242.081199 430.908775 237.490291 453.230685 233.489642 C 453.405644 232.141518 453.449384 230.786107 453.358259 229.430696 C 452.344952 228.705624 451.371741 227.929542 450.442268 227.10245 C 449.509151 226.275357 448.623419 225.400899 447.781427 224.479073 C 446.939434 223.557248 446.152117 222.595343 445.412184 221.59336 C 444.672252 220.591376 443.986994 219.549312 443.356411 218.474457 C 442.729473 217.399601 442.157209 216.291953 441.643266 215.158801 C 441.129323 214.022004 440.673699 212.863346 440.283685 211.679183 C 439.890027 210.495021 439.561978 209.296283 439.295893 208.079328 C 439.029809 206.85873 438.829335 205.630844 438.69447 204.392027 C 438.555961 203.153211 438.486706 201.91075 438.479416 200.664647 C 438.475771 199.418543 438.534091 198.172439 438.65802 196.933623 C 438.78195 195.694806 438.97149 194.463277 439.226639 193.242678 C 439.481788 192.022079 439.798902 190.819699 440.177981 189.631892 C 440.560705 188.444086 441.001748 187.281784 441.504757 186.141344 C 442.007765 185.000904 442.569093 183.889613 443.188741 182.80747 C 443.808389 181.725328 444.482712 180.679621 445.215355 179.670349 C 445.944353 178.661078 446.72438 177.691887 447.555438 176.762774 C 448.39014 175.833662 449.264937 174.951916 450.190764 174.113893 C 451.116591 173.279513 452.082513 172.492501 453.08853 171.760141 C 454.094547 171.024139 455.137014 170.346433 456.21593 169.719738 C 457.294847 169.096686 458.402923 168.528288 459.54016 168.018187 C 460.681041 167.511729 461.840148 167.063569 463.024769 166.67735 C 464.213035 166.291131 465.412236 165.966852 466.633308 165.708158 C 467.850734 165.449464 469.08274 165.252711 470.322036 165.121542 C 471.561332 164.990373 472.804273 164.924789 474.050859 164.924789 C 475.297445 164.924789 476.540386 164.990373 477.779683 165.121542 C 479.018979 165.252711 480.24734 165.449464 481.468411 165.708158 C 482.685837 165.966852 483.888683 166.291131 485.073305 166.67735 C 486.257926 167.063569 487.420677 167.511729 488.557914 168.018187 C 489.69515 168.528288 490.803227 169.096686 491.882143 169.719738 C 492.96106 170.346433 494.003527 171.024139 495.013188 171.760141 C 496.019205 172.492501 496.985127 173.279513 497.907309 174.113893 C 498.833136 174.951916 499.711579 175.833662 500.542636 176.762774 C 501.373693 177.691887 502.157366 178.661078 502.886364 179.670349 C 503.615361 180.679621 504.289684 181.725328 504.909332 182.80747 C 505.52898 183.889613 506.090309 185.000904 506.593317 186.141344 C 507.096325 187.281784 507.541014 188.444086 507.920093 189.631892 C 508.299172 190.819699 508.619931 192.022079 508.871435 193.242678 C 509.126584 194.463277 509.316123 195.694806 509.440053 196.933623 C 509.567628 198.172439 509.625947 199.418543 509.618657 200.664647 C 509.615012 201.91075 509.542113 203.153211 509.407248 204.392027 C 509.268739 205.630844 509.068264 206.85873 508.80218 208.079328 C 508.536096 209.296283 508.208047 210.495021 507.818033 211.679183 C 507.424374 212.863346 506.972396 214.022004 506.458452 215.158801 C 505.944509 216.291953 505.372246 217.399601 504.741663 218.474457 C 504.11108 219.549312 503.425822 220.591376 502.689534 221.59336 C 501.949602 222.595343 501.158639 223.557248 500.320292 224.479073 C 499.478299 225.400899 498.592567 226.275357 497.65945 227.10245 C 496.726333 227.929542 495.753121 228.705624 494.739814 229.430696 C 494.645045 230.767889 494.685139 232.101439 494.860099 233.431345 C 517.171074 237.42835 534.750853 241.960961 536.340069 242.430983 C 536.777467 242.522072 537.203931 242.649598 537.615814 242.817202 C 538.031343 242.981163 538.428647 243.18156 538.807726 243.414749 C 539.19045 243.647938 539.547658 243.913919 539.879352 244.209049 C 540.214691 244.504179 540.52087 244.828457 540.801534 245.174597 C 541.078554 245.524381 541.326413 245.892382 541.541467 246.285889 C 541.756521 246.675751 541.935126 247.083832 542.080925 247.506487 C 542.226725 247.929142 542.33243 248.359085 542.405329 248.799957 C 542.474584 249.24083 542.507389 249.685347 542.500099 250.129863 C 542.842728 255.595231 542.762538 261.056954 542.248595 266.511391 L 542.12102 267.721059 L 541.541467 268.788627 C 539.150355 273.259297 534.371775 274.34144 532.800785 274.589204 C 518.209895 277.511353 503.480497 279.358647 495.898921 280.200314 L 496.099395 285.880652 C 532.421706 292.380796 566.1014 314.879891 592.170358 350.138796 L 604.16966 327.858316 C 604.508644 327.238908 604.924173 326.674153 605.416246 326.164052 C 605.90832 325.653951 606.458713 325.220365 607.067426 324.859651 C 607.676139 324.498937 608.321302 324.225668 609.002915 324.039846 C 609.688173 323.85038 610.380721 323.75929 611.091494 323.75929 L 803.091265 323.75929 L 803.499504 329.589015 C 805.351158 355.848283 790.031271 370.5902 783.149533 375.789586 C 782.799614 396.918696 768.959592 409.379733 762.569928 414.021652 C 762.515253 415.916312 762.351228 417.803686 762.088789 419.680128 C 761.822705 421.560215 761.454561 423.41844 760.984358 425.254803 C 760.514154 427.09481 759.941891 428.898381 759.271213 430.672804 C 758.600535 432.45087 757.835087 434.181569 756.97487 435.87219 C 756.111008 437.56281 755.159666 439.198777 754.117199 440.783733 C 753.074732 442.36869 751.944786 443.888062 750.73465 445.349136 C 749.524514 446.810211 748.234188 448.198415 746.870962 449.513746 C 745.504091 450.832722 744.071611 452.071538 742.569875 453.230196 C 741.771623 476.108223 729.309407 487.501692 723.040027 491.808401 C 721.490907 516.570158 701.23935 531.228273 700.339038 531.858612 L 698.709728 533.020914 L 641.709397 533.020914 C 639.008461 579.068454 626.189036 623.020937 605.121002 658.93933 C 619.121403 648.088755 623.958303 643.060617 630.530217 629.45914 L 636.781373 616.539012 L 642.030156 629.900013 C 645.879264 639.708525 651.718536 672.901522 648.890025 685.209529 L 646.590037 695.211151 L 638.720507 688.55069 C 636.314814 686.481138 633.723227 684.684854 630.938456 683.158194 L 630.129269 684.779587 C 623.4881 697.918329 611.131588 722.399531 602.128467 733.15173 C 579.008304 760.89029 539.350829 779.578203 518.031291 789.619904 C 515.589149 790.771275 513.398511 791.809694 511.528631 792.709658 C 495.720316 800.401252 488.528754 806.08159 479.248613 818.061675 L 478.971594 818.429676 L 478.6399 818.73938 C 478.038477 819.340571 477.349574 819.806949 476.569546 820.149445 C 475.793164 820.488298 474.976686 820.67412 474.131049 820.710556 Z M 339.281053 675.998563 C 344.748536 684.670279 356.01155 699.310176 371.280407 713.399893 C 387.828655 728.699277 413.110296 746.93903 439.459918 746.93903 C 441.169418 746.93903 442.889852 746.858871 444.559257 746.698553 C 445.08049 746.698553 446.330721 745.620054 447.489828 741.998338 C 411.429956 734.15007 378.049151 710.248198 352.680031 673.998239 L 346.250271 674.898203 C 343.141096 675.331788 341.001487 675.641493 339.281053 675.998563 Z M 500.899845 741.998338 C 501.898572 745.510747 503.090483 746.658474 503.710131 746.720415 C 505.390471 746.880732 507.110905 746.960891 508.820405 746.960891 C 535.180962 746.960891 560.451668 728.721139 577.010851 713.421754 C 592.261483 699.328394 603.531787 684.688497 609.010205 676.020425 C 607.278836 675.681572 605.161097 675.368224 602.011827 674.930995 L 595.578422 674.031031 C 570.260332 710.1899 536.919622 734.080842 500.899845 741.998338 Z M 474.138339 192.000218 C 473.577011 192.000218 473.015683 192.054872 472.461644 192.164179 C 471.907606 192.27713 471.371793 192.437447 470.850559 192.656062 C 470.325681 192.871033 469.829963 193.137014 469.363404 193.450362 C 468.8932 193.76371 468.459447 194.12078 468.058498 194.51793 C 467.661194 194.918724 467.303985 195.35231 466.990516 195.822331 C 466.677047 196.292353 466.410963 196.78788 466.195909 197.308911 C 465.97721 197.829943 465.81683 198.369192 465.703835 198.923016 C 465.594486 199.47684 465.539811 200.034308 465.539811 200.599062 C 465.539811 201.163817 465.594486 201.724928 465.703835 202.278752 C 465.81683 202.832576 465.97721 203.368182 466.195909 203.892857 C 466.410963 204.413889 466.677047 204.909415 466.990516 205.379437 C 467.303985 205.845815 467.661194 206.283044 468.058498 206.680194 C 468.459447 207.080988 468.8932 207.438058 469.363404 207.751406 C 469.829963 208.064754 470.325681 208.330735 470.850559 208.545706 C 471.371793 208.760677 471.907606 208.924638 472.461644 209.033946 C 473.015683 209.143253 473.577011 209.20155 474.138339 209.20155 C 474.703312 209.20155 475.26464 209.143253 475.818679 209.033946 C 476.372717 208.924638 476.90853 208.760677 477.429764 208.545706 C 477.950997 208.330735 478.446715 208.064754 478.916919 207.751406 C 479.387122 207.438058 479.820876 207.080988 480.221825 206.680194 C 480.619129 206.283044 480.976337 205.845815 481.289807 205.379437 C 481.603276 204.909415 481.86936 204.413889 482.084414 203.892857 C 482.303113 203.368182 482.463493 202.832576 482.576487 202.278752 C 482.685837 201.724928 482.740512 201.163817 482.740512 200.599062 C 482.744157 200.030664 482.693127 199.469553 482.587422 198.912086 C 482.481718 198.354618 482.321338 197.811725 482.106284 197.28705 C 481.89123 196.758731 481.62879 196.259561 481.315321 195.785896 C 481.001852 195.31223 480.644644 194.875001 480.24734 194.470564 C 479.846391 194.066127 479.412637 193.705412 478.942434 193.388421 C 478.468585 193.07143 477.972867 192.805449 477.447989 192.58319 C 476.92311 192.364576 476.383652 192.200615 475.825969 192.087664 C 475.27193 191.978356 474.706957 191.920059 474.138339 191.920059 Z M 474.138339 192.000218 " stroke="#ffffff" stroke-width="0.65" stroke-opacity="1" stroke-miterlimit="10" />
  <path fill="#312783" d="M 232.183594 220.171875 L 209.976562 179.011719 C 209.820312 178.75 209.609375 178.546875 209.34375 178.394531 C 209.078125 178.246094 208.792969 178.171875 208.488281 178.175781 L 8.953125 178.175781 C 6.722656 209.769531 30.835938 223.742188 30.835938 223.742188 C 29.324219 251.378906 52.785156 264.578125 52.785156 264.578125 C 52.410156 294.175781 74.21875 306.699219 74.21875 306.699219 C 73.746094 337.734375 95.09375 347.761719 95.09375 347.761719 C 94.742188 373.488281 116.679688 389.066406 116.679688 389.066406 L 183.324219 389.066406 " fill-opacity="1" fill-rule="nonzero" />
  <path fill="#312783" d="M 478.5625 220.171875 L 500.765625 179.011719 C 500.921875 178.75 501.132812 178.542969 501.398438 178.394531 C 501.664062 178.242188 501.953125 178.171875 502.257812 178.175781 L 701.792969 178.175781 C 704.023438 209.769531 679.898438 223.742188 679.898438 223.742188 C 681.410156 251.378906 657.960938 264.578125 657.960938 264.578125 C 658.335938 294.175781 636.527344 306.699219 636.527344 306.699219 C 636.964844 337.683594 615.640625 347.71875 615.640625 347.71875 C 615.992188 373.445312 594.058594 389.023438 594.058594 389.023438 L 527.386719 389.023438 " fill-opacity="1" fill-rule="nonzero" />
  <path fill="#ffcc00" d="M 228.433594 222.882812 L 207.480469 182.863281 C 207.328125 182.597656 207.117188 182.390625 206.851562 182.242188 C 206.582031 182.09375 206.296875 182.019531 205.992188 182.023438 L 12.972656 182.023438 C 12.972656 209.265625 33.171875 219.773438 33.171875 219.773438 L 136.484375 219.773438 L 187.035156 380.210938 Z M 228.433594 222.882812 " fill-opacity="1" fill-rule="nonzero" />
  <path fill="#ffcc00" d="M 132.722656 223.558594 L 144.648438 260.589844 L 55.816406 260.589844 C 54.183594 259.675781 52.617188 258.660156 51.117188 257.535156 C 49.621094 256.414062 48.207031 255.195312 46.871094 253.878906 C 45.539062 252.5625 44.300781 251.164062 43.160156 249.683594 C 42.015625 248.199219 40.976562 246.648438 40.042969 245.023438 C 39.109375 243.402344 38.289062 241.722656 37.582031 239.988281 C 36.878906 238.253906 36.292969 236.480469 35.824219 234.667969 C 35.359375 232.851562 35.015625 231.015625 34.796875 229.15625 C 34.582031 227.296875 34.488281 225.429688 34.523438 223.558594 Z M 132.722656 223.558594 " fill-opacity="1" fill-rule="nonzero" />
  <path fill="#ffcc00" d="M 159.105469 306.65625 L 171.054688 343.695312 L 95.707031 343.695312 C 95.707031 343.695312 78 333.394531 78 306.65625 Z M 159.105469 306.65625 " fill-opacity="1" fill-rule="nonzero" />
  <path fill="#ffcc00" d="M 171.964844 347.492188 L 183.691406 384.523438 L 118.167969 384.523438 C 118.167969 384.523438 100.464844 374.21875 100.464844 347.492188 Z M 171.964844 347.492188 " fill-opacity="1" fill-rule="nonzero" />
  <path fill="#ffcc00" d="M 145.601562 264.542969 L 157.734375 302.550781 L 76.050781 302.550781 C 76.050781 302.550781 56.609375 291.96875 56.609375 264.542969 Z M 145.601562 264.542969 " fill-opacity="1" fill-rule="nonzero" />
  <path fill="#ffcc00" d="M 482.3125 222.882812 L 503.265625 182.863281 C 503.417969 182.597656 503.628906 182.390625 503.894531 182.242188 C 504.164062 182.09375 504.449219 182.019531 504.753906 182.023438 L 697.773438 182.023438 C 697.773438 209.265625 677.574219 219.773438 677.574219 219.773438 L 574.261719 219.773438 L 523.710938 380.210938 Z M 482.3125 222.882812 " fill-opacity="1" fill-rule="nonzero" />
  <path fill="#ffcc00" d="M 578.023438 223.558594 L 566.097656 260.589844 L 654.929688 260.589844 C 656.5625 259.675781 658.128906 258.660156 659.625 257.535156 C 661.121094 256.410156 662.539062 255.191406 663.871094 253.878906 C 665.203125 252.5625 666.4375 251.164062 667.582031 249.679688 C 668.726562 248.199219 669.761719 246.644531 670.695312 245.023438 C 671.628906 243.398438 672.449219 241.71875 673.15625 239.984375 C 673.859375 238.253906 674.445312 236.476562 674.910156 234.664062 C 675.378906 232.851562 675.71875 231.015625 675.9375 229.15625 C 676.15625 227.296875 676.246094 225.429688 676.210938 223.558594 Z M 578.023438 223.558594 " fill-opacity="1" fill-rule="nonzero" />
  <path fill="#ffcc00" d="M 551.695312 306.65625 L 539.746094 343.695312 L 615.039062 343.695312 C 615.039062 343.695312 632.789062 333.394531 632.789062 306.65625 Z M 551.695312 306.65625 " fill-opacity="1" fill-rule="nonzero" />
  <path fill="#ffcc00" d="M 538.824219 347.492188 L 527.109375 384.523438 L 592.578125 384.523438 C 592.578125 384.523438 610.28125 374.21875 610.28125 347.492188 Z M 538.824219 347.492188 " fill-opacity="1" fill-rule="nonzero" />
  <path fill="#ffcc00" d="M 565.144531 264.542969 L 553.011719 302.550781 L 634.695312 302.550781 C 634.695312 302.550781 654.125 291.96875 654.125 264.542969 Z M 565.144531 264.542969 " fill-opacity="1" fill-rule="nonzero" />
  <path fill="#312783" d="M 529.167969 502.078125 C 520.390625 520.238281 513.636719 525.664062 493.363281 541.15625 C 501.730469 542.324219 504.164062 542.773438 509.695312 544.972656 C 503.488281 560.601562 445.394531 636.957031 386.453125 631.488281 C 380.128906 630.898438 377.40625 623.417969 376.109375 614.398438 C 462.207031 600.207031 528.964844 498.785156 528.964844 375.773438 C 528.964844 251.023438 460.375 148.492188 372.5 136.578125 L 371.941406 120.875 C 371.941406 118.472656 375.445312 118.3125 375.445312 118.3125 C 382.667969 117.539062 400.007812 115.511719 417.242188 112.050781 C 417.242188 112.050781 420.550781 111.664062 421.816406 109.292969 C 422.328125 103.703125 422.40625 98.109375 422.042969 92.503906 C 422.042969 92.503906 422.257812 91.132812 420.550781 90.746094 C 420.550781 90.746094 399.890625 85.28125 374.253906 80.839844 C 373.90625 80.804688 373.574219 80.710938 373.253906 80.566406 C 372.9375 80.421875 372.648438 80.226562 372.394531 79.988281 C 372.140625 79.746094 371.929688 79.472656 371.761719 79.164062 C 371.597656 78.855469 371.484375 78.527344 371.425781 78.183594 C 371.0625 75.554688 370.226562 71.148438 371.425781 66.25 C 372.40625 65.667969 373.347656 65.035156 374.257812 64.351562 C 375.167969 63.667969 376.035156 62.9375 376.867188 62.160156 C 377.695312 61.382812 378.480469 60.5625 379.222656 59.699219 C 379.964844 58.835938 380.65625 57.933594 381.296875 56.996094 C 381.941406 56.054688 382.53125 55.085938 383.070312 54.082031 C 383.605469 53.078125 384.085938 52.050781 384.511719 50.996094 C 384.9375 49.9375 385.304688 48.863281 385.613281 47.769531 C 385.925781 46.671875 386.171875 45.566406 386.359375 44.441406 C 386.550781 43.320312 386.675781 42.191406 386.742188 41.054688 C 386.808594 39.917969 386.8125 38.78125 386.753906 37.644531 C 386.695312 36.511719 386.578125 35.378906 386.398438 34.257812 C 386.214844 33.132812 385.976562 32.023438 385.675781 30.925781 C 385.371094 29.828125 385.011719 28.75 384.59375 27.691406 C 384.175781 26.632812 383.703125 25.601562 383.171875 24.59375 C 382.640625 23.585938 382.058594 22.613281 381.421875 21.667969 C 380.785156 20.726562 380.101562 19.820312 379.367188 18.953125 C 378.628906 18.082031 377.851562 17.257812 377.027344 16.472656 C 376.203125 15.6875 375.335938 14.953125 374.433594 14.261719 C 373.527344 13.570312 372.589844 12.933594 371.613281 12.34375 C 370.640625 11.757812 369.636719 11.222656 368.605469 10.746094 C 367.574219 10.265625 366.519531 9.84375 365.441406 9.480469 C 364.363281 9.117188 363.269531 8.8125 362.160156 8.566406 C 361.046875 8.320312 359.925781 8.136719 358.796875 8.011719 C 357.664062 7.890625 356.53125 7.828125 355.394531 7.828125 C 354.257812 7.828125 353.121094 7.890625 351.992188 8.011719 C 350.859375 8.136719 349.738281 8.320312 348.628906 8.566406 C 347.519531 8.8125 346.425781 9.117188 345.347656 9.480469 C 344.269531 9.84375 343.214844 10.265625 342.183594 10.746094 C 341.148438 11.222656 340.148438 11.757812 339.171875 12.34375 C 338.199219 12.933594 337.261719 13.570312 336.355469 14.261719 C 335.449219 14.953125 334.585938 15.6875 333.761719 16.472656 C 332.9375 17.257812 332.15625 18.082031 331.421875 18.953125 C 330.6875 19.820312 330.003906 20.726562 329.367188 21.667969 C 328.730469 22.613281 328.148438 23.585938 327.617188 24.59375 C 327.085938 25.601562 326.613281 26.632812 326.195312 27.691406 C 325.773438 28.75 325.414062 29.828125 325.113281 30.925781 C 324.8125 32.023438 324.574219 33.132812 324.390625 34.257812 C 324.210938 35.378906 324.09375 36.511719 324.035156 37.644531 C 323.976562 38.78125 323.980469 39.917969 324.046875 41.054688 C 324.113281 42.191406 324.238281 43.320312 324.425781 44.441406 C 324.617188 45.566406 324.863281 46.671875 325.171875 47.769531 C 325.480469 48.863281 325.847656 49.9375 326.273438 50.996094 C 326.699219 52.050781 327.183594 53.078125 327.71875 54.082031 C 328.257812 55.085938 328.847656 56.054688 329.488281 56.996094 C 330.132812 57.933594 330.824219 58.835938 331.566406 59.699219 C 332.304688 60.5625 333.09375 61.382812 333.921875 62.160156 C 334.75 62.9375 335.621094 63.667969 336.53125 64.351562 C 337.441406 65.035156 338.382812 65.667969 339.363281 66.25 C 340.582031 71.148438 339.746094 75.554688 339.363281 78.183594 C 339.300781 78.527344 339.183594 78.851562 339.015625 79.160156 C 338.847656 79.46875 338.636719 79.742188 338.378906 79.980469 C 338.125 80.21875 337.839844 80.414062 337.519531 80.558594 C 337.203125 80.707031 336.871094 80.800781 336.523438 80.839844 C 310.886719 85.28125 290.238281 90.746094 290.238281 90.746094 C 288.523438 91.132812 288.746094 92.503906 288.746094 92.503906 C 288.378906 98.109375 288.453125 103.703125 288.972656 109.292969 C 290.234375 111.664062 293.546875 112.050781 293.546875 112.050781 C 310.75 115.511719 328.097656 117.539062 335.34375 118.3125 C 335.34375 118.3125 338.835938 118.472656 338.835938 120.875 L 338.28125 136.578125 C 250.402344 148.480469 181.816406 251.023438 181.816406 375.773438 C 181.816406 498.902344 248.699219 600.398438 334.914062 614.441406 C 333.5 623.417969 330.5625 630.910156 324.316406 631.488281 C 265.375 636.957031 207.277344 560.601562 201.074219 544.972656 C 206.601562 542.773438 209.023438 542.324219 217.40625 541.15625 C 197.128906 525.707031 190.378906 520.238281 181.589844 502.078125 C 177.464844 512.605469 172.007812 546.40625 174.527344 557.40625 C 179.1875 553.304688 184.445312 550.21875 190.300781 548.15625 C 192.316406 551.316406 211.382812 591.863281 223.214844 606.046875 C 249.898438 638.0625 299.183594 658.964844 318.089844 668.15625 C 335.320312 676.539062 344.132812 683.089844 355.0625 697.273438 C 355.15625 697.359375 355.265625 697.40625 355.394531 697.40625 C 355.523438 697.40625 355.632812 697.359375 355.726562 697.273438 C 366.648438 683.089844 375.457031 676.539062 392.6875 668.15625 C 411.605469 658.964844 460.890625 638.0625 487.5625 606.046875 C 499.351562 591.855469 518.472656 551.308594 520.484375 548.15625 C 526.339844 550.238281 531.589844 553.339844 536.238281 557.460938 C 538.746094 546.40625 533.304688 512.605469 529.167969 502.078125 Z M 339.480469 39.246094 C 339.480469 38.722656 339.503906 38.199219 339.558594 37.679688 C 339.609375 37.160156 339.683594 36.644531 339.785156 36.132812 C 339.886719 35.621094 340.015625 35.113281 340.167969 34.613281 C 340.316406 34.113281 340.492188 33.621094 340.695312 33.140625 C 340.894531 32.65625 341.117188 32.183594 341.363281 31.722656 C 341.609375 31.261719 341.878906 30.816406 342.167969 30.382812 C 342.457031 29.945312 342.769531 29.527344 343.101562 29.125 C 343.429688 28.71875 343.78125 28.332031 344.152344 27.964844 C 344.519531 27.59375 344.90625 27.242188 345.308594 26.914062 C 345.714844 26.582031 346.132812 26.269531 346.566406 25.980469 C 347 25.691406 347.449219 25.421875 347.910156 25.175781 C 348.371094 24.929688 348.839844 24.707031 349.324219 24.503906 C 349.804688 24.304688 350.296875 24.128906 350.796875 23.976562 C 351.296875 23.828125 351.804688 23.699219 352.316406 23.597656 C 352.828125 23.496094 353.34375 23.417969 353.863281 23.367188 C 354.382812 23.316406 354.902344 23.292969 355.425781 23.292969 C 355.949219 23.292969 356.46875 23.316406 356.988281 23.367188 C 357.507812 23.417969 358.023438 23.496094 358.539062 23.597656 C 359.050781 23.699219 359.554688 23.828125 360.054688 23.976562 C 360.554688 24.128906 361.046875 24.304688 361.527344 24.503906 C 362.011719 24.707031 362.484375 24.929688 362.945312 25.175781 C 363.402344 25.421875 363.851562 25.691406 364.285156 25.980469 C 364.71875 26.269531 365.140625 26.582031 365.542969 26.914062 C 365.945312 27.242188 366.332031 27.59375 366.703125 27.964844 C 367.070312 28.332031 367.421875 28.71875 367.753906 29.125 C 368.085938 29.527344 368.394531 29.945312 368.683594 30.382812 C 368.976562 30.816406 369.242188 31.261719 369.488281 31.722656 C 369.734375 32.183594 369.960938 32.65625 370.160156 33.140625 C 370.359375 33.621094 370.535156 34.113281 370.6875 34.613281 C 370.839844 35.113281 370.964844 35.621094 371.066406 36.132812 C 371.167969 36.644531 371.246094 37.160156 371.296875 37.679688 C 371.347656 38.199219 371.371094 38.722656 371.371094 39.246094 C 371.371094 39.765625 371.347656 40.289062 371.296875 40.808594 C 371.246094 41.328125 371.167969 41.84375 371.066406 42.355469 C 370.964844 42.867188 370.839844 43.375 370.6875 43.875 C 370.535156 44.375 370.359375 44.867188 370.160156 45.347656 C 369.960938 45.832031 369.734375 46.304688 369.488281 46.765625 C 369.242188 47.226562 368.976562 47.671875 368.683594 48.105469 C 368.394531 48.542969 368.085938 48.960938 367.753906 49.363281 C 367.421875 49.769531 367.070312 50.15625 366.703125 50.523438 C 366.332031 50.894531 365.945312 51.246094 365.542969 51.574219 C 365.140625 51.90625 364.71875 52.21875 364.285156 52.507812 C 363.851562 52.796875 363.402344 53.066406 362.945312 53.3125 C 362.484375 53.558594 362.011719 53.78125 361.527344 53.984375 C 361.046875 54.183594 360.554688 54.359375 360.054688 54.511719 C 359.554688 54.660156 359.050781 54.789062 358.539062 54.890625 C 358.023438 54.992188 357.507812 55.070312 356.988281 55.121094 C 356.46875 55.171875 355.949219 55.195312 355.425781 55.195312 C 354.902344 55.199219 354.378906 55.175781 353.859375 55.125 C 353.339844 55.074219 352.820312 55 352.308594 54.898438 C 351.792969 54.800781 351.285156 54.671875 350.785156 54.523438 C 350.285156 54.371094 349.792969 54.195312 349.308594 53.996094 C 348.824219 53.800781 348.351562 53.578125 347.886719 53.332031 C 347.425781 53.085938 346.976562 52.816406 346.542969 52.527344 C 346.105469 52.238281 345.683594 51.925781 345.28125 51.59375 C 344.875 51.261719 344.488281 50.914062 344.117188 50.542969 C 343.746094 50.175781 343.394531 49.785156 343.0625 49.382812 C 342.726562 48.976562 342.417969 48.558594 342.125 48.125 C 341.832031 47.6875 341.5625 47.242188 341.316406 46.777344 C 341.070312 46.316406 340.847656 45.84375 340.644531 45.363281 C 340.445312 44.878906 340.269531 44.386719 340.117188 43.882812 C 339.964844 43.382812 339.835938 42.875 339.734375 42.363281 C 339.632812 41.847656 339.554688 41.332031 339.503906 40.8125 C 339.453125 40.289062 339.425781 39.769531 339.425781 39.242188 Z M 339.480469 39.246094 " fill-opacity="1" fill-rule="nonzero" />
  <path fill="#ffffff" d="M 521.738281 375.742188 C 521.738281 503.855469 447.054688 607.847656 354.921875 607.847656 C 262.789062 607.847656 188.09375 503.855469 188.09375 375.742188 C 188.09375 247.625 262.78125 143.632812 354.921875 143.632812 C 447.066406 143.632812 521.738281 247.5625 521.738281 375.742188 Z M 521.738281 375.742188 " fill-opacity="1" fill-rule="nonzero" />
  <path fill="#312783" d="M 206.761719 333.996094 L 207.535156 337.308594 C 205.21875 339.289062 203.890625 342.226562 203.546875 346.140625 C 203.371094 347.421875 203.40625 348.699219 203.652344 349.96875 C 203.894531 351.238281 204.335938 352.433594 204.972656 353.558594 C 205.101562 353.789062 205.246094 354.007812 205.402344 354.21875 C 205.558594 354.425781 205.726562 354.628906 205.90625 354.816406 C 206.085938 355.007812 206.277344 355.1875 206.476562 355.355469 C 206.679688 355.523438 206.890625 355.675781 207.109375 355.816406 C 207.328125 355.960938 207.558594 356.089844 207.792969 356.203125 C 208.027344 356.316406 208.269531 356.417969 208.515625 356.503906 C 208.765625 356.589844 209.015625 356.660156 209.269531 356.714844 C 209.527344 356.769531 209.785156 356.808594 210.046875 356.835938 C 210.304688 356.859375 210.566406 356.867188 210.828125 356.859375 C 211.089844 356.855469 211.351562 356.832031 211.609375 356.792969 C 211.871094 356.753906 212.125 356.699219 212.378906 356.632812 C 212.628906 356.5625 212.878906 356.480469 213.121094 356.378906 C 213.363281 356.28125 213.597656 356.167969 213.828125 356.042969 C 214.054688 355.914062 214.277344 355.773438 214.488281 355.621094 C 214.699219 355.46875 214.902344 355.300781 215.09375 355.125 C 215.285156 354.945312 215.46875 354.757812 215.636719 354.558594 C 216.472656 353.519531 217.121094 352.378906 217.582031 351.132812 C 218.046875 349.886719 218.300781 348.597656 218.347656 347.265625 C 218.707031 343.484375 217.90625 340.414062 215.949219 338.046875 L 217.757812 335.128906 C 219.21875 336.738281 220.25 338.585938 220.84375 340.671875 C 221.421875 343 221.574219 345.355469 221.304688 347.738281 C 221.21875 349.414062 220.882812 351.039062 220.292969 352.609375 C 219.703125 354.183594 218.890625 355.628906 217.855469 356.949219 C 217.621094 357.257812 217.367188 357.550781 217.09375 357.828125 C 216.824219 358.101562 216.535156 358.363281 216.230469 358.601562 C 215.921875 358.839844 215.605469 359.0625 215.273438 359.261719 C 214.9375 359.460938 214.59375 359.636719 214.238281 359.792969 C 213.882812 359.949219 213.519531 360.082031 213.148438 360.191406 C 212.777344 360.300781 212.398438 360.386719 212.015625 360.449219 C 211.632812 360.511719 211.246094 360.550781 210.859375 360.5625 C 210.46875 360.574219 210.082031 360.5625 209.695312 360.527344 C 209.3125 360.492188 208.929688 360.429688 208.550781 360.34375 C 208.171875 360.261719 207.800781 360.152344 207.433594 360.019531 C 207.070312 359.886719 206.714844 359.734375 206.367188 359.554688 C 206.023438 359.378906 205.691406 359.179688 205.371094 358.960938 C 205.050781 358.742188 204.746094 358.503906 204.457031 358.246094 C 204.164062 357.984375 203.894531 357.710938 203.636719 357.417969 C 203.382812 357.125 203.148438 356.816406 202.933594 356.496094 C 202.714844 356.171875 202.523438 355.835938 202.347656 355.488281 C 201.558594 354.011719 201.015625 352.449219 200.710938 350.804688 C 200.40625 349.15625 200.359375 347.503906 200.570312 345.839844 C 201.054688 340.496094 203.121094 336.546875 206.761719 333.996094 Z M 206.761719 333.996094 " fill-opacity="1" fill-rule="nonzero" />
  <path fill="#312783" d="M 200.902344 308.339844 L 204.578125 312.851562 L 204.210938 314.632812 L 200.214844 311.714844 Z M 225.6875 315.339844 L 224.972656 318.835938 L 205.679688 314.898438 L 206.398438 311.40625 Z M 225.6875 315.339844 " fill-opacity="1" fill-rule="nonzero" />
  <path fill="#312783" d="M 237.339844 274.730469 L 236.03125 278.71875 L 227.09375 281.933594 L 223.683594 292.246094 L 230.800781 294.59375 L 229.730469 297.984375 L 211.070312 291.808594 L 216.429688 275.726562 C 216.671875 274.800781 217.070312 273.949219 217.625 273.171875 C 218.179688 272.390625 218.851562 271.734375 219.644531 271.203125 C 220.386719 270.761719 221.191406 270.503906 222.050781 270.429688 C 222.914062 270.355469 223.746094 270.476562 224.554688 270.785156 C 225.273438 270.992188 225.921875 271.335938 226.496094 271.8125 C 227.074219 272.292969 227.53125 272.867188 227.863281 273.539062 C 228.488281 274.949219 228.636719 276.40625 228.316406 277.914062 Z M 224.9375 279.015625 C 225.808594 276.402344 225.269531 274.730469 223.351562 274.140625 C 221.433594 273.550781 219.796875 274.523438 218.851562 277.355469 L 214.917969 289.257812 L 220.898438 291.238281 Z M 224.9375 279.015625 " fill-opacity="1" fill-rule="nonzero" />
  <path fill="#312783" d="M 242.355469 230.675781 L 241.742188 234.023438 C 238.835938 234.921875 236.445312 237.097656 234.574219 240.550781 C 233.910156 241.660156 233.4375 242.84375 233.160156 244.105469 C 232.878906 245.367188 232.808594 246.640625 232.945312 247.925781 C 232.972656 248.1875 233.019531 248.445312 233.078125 248.699219 C 233.136719 248.953125 233.210938 249.203125 233.304688 249.449219 C 233.394531 249.695312 233.496094 249.9375 233.617188 250.167969 C 233.734375 250.402344 233.867188 250.628906 234.011719 250.84375 C 234.160156 251.0625 234.316406 251.269531 234.488281 251.46875 C 234.660156 251.667969 234.839844 251.855469 235.035156 252.03125 C 235.226562 252.207031 235.429688 252.371094 235.644531 252.523438 C 235.855469 252.675781 236.078125 252.816406 236.308594 252.941406 C 236.539062 253.066406 236.773438 253.179688 237.015625 253.273438 C 237.261719 253.371094 237.507812 253.453125 237.761719 253.523438 C 238.015625 253.589844 238.269531 253.640625 238.53125 253.675781 C 238.789062 253.714844 239.050781 253.734375 239.3125 253.742188 C 239.574219 253.746094 239.832031 253.734375 240.09375 253.710938 C 240.355469 253.683594 240.613281 253.640625 240.867188 253.585938 C 241.125 253.527344 241.375 253.453125 241.621094 253.367188 C 241.867188 253.28125 242.109375 253.179688 242.34375 253.0625 C 243.515625 252.441406 244.558594 251.652344 245.476562 250.695312 C 246.394531 249.734375 247.136719 248.65625 247.703125 247.453125 C 249.523438 244.109375 249.996094 241.023438 249.148438 238.03125 L 251.964844 236.082031 C 252.675781 238.136719 252.886719 240.238281 252.597656 242.394531 C 252.21875 244.761719 251.429688 246.984375 250.230469 249.0625 C 249.484375 250.566406 248.53125 251.921875 247.371094 253.132812 C 246.207031 254.34375 244.886719 255.347656 243.414062 256.148438 C 243.078125 256.339844 242.726562 256.507812 242.367188 256.65625 C 242.007812 256.800781 241.640625 256.925781 241.265625 257.023438 C 240.886719 257.125 240.507812 257.199219 240.121094 257.25 C 239.738281 257.300781 239.351562 257.328125 238.960938 257.332031 C 238.574219 257.332031 238.1875 257.3125 237.800781 257.265625 C 237.414062 257.21875 237.035156 257.144531 236.65625 257.050781 C 236.28125 256.953125 235.910156 256.835938 235.550781 256.691406 C 235.1875 256.550781 234.835938 256.386719 234.496094 256.199219 C 234.15625 256.011719 233.828125 255.804688 233.515625 255.574219 C 233.199219 255.347656 232.902344 255.097656 232.617188 254.832031 C 232.335938 254.566406 232.070312 254.28125 231.824219 253.980469 C 231.578125 253.679688 231.351562 253.367188 231.144531 253.039062 C 230.9375 252.707031 230.753906 252.367188 230.589844 252.015625 C 230.425781 251.664062 230.285156 251.300781 230.167969 250.929688 C 230.050781 250.558594 229.957031 250.183594 229.886719 249.800781 C 229.816406 249.417969 229.773438 249.03125 229.75 248.644531 C 229.609375 246.984375 229.722656 245.339844 230.085938 243.714844 C 230.453125 242.085938 231.054688 240.554688 231.894531 239.113281 C 234.503906 234.382812 237.988281 231.570312 242.355469 230.675781 Z M 242.355469 230.675781 " fill-opacity="1" fill-rule="nonzero" />
  <path fill="#312783" d="M 276.25 202.191406 C 277.785156 203.542969 278.296875 205.460938 277.804688 207.925781 C 277.066406 210.988281 275.597656 213.640625 273.398438 215.894531 C 271.414062 218.347656 268.945312 220.136719 265.996094 221.253906 C 263.582031 222.035156 261.621094 221.746094 260.113281 220.40625 L 250.199219 211.605469 L 252.566406 208.933594 L 261.945312 217.234375 C 262.5 217.738281 263.148438 218.054688 263.890625 218.175781 C 264.632812 218.300781 265.347656 218.214844 266.039062 217.917969 C 268.019531 216.914062 269.746094 215.574219 271.214844 213.910156 C 272.683594 212.242188 273.796875 210.363281 274.546875 208.269531 C 274.753906 207.546875 274.746094 206.828125 274.53125 206.109375 C 274.316406 205.386719 273.925781 204.785156 273.359375 204.292969 L 263.980469 195.996094 L 266.347656 193.324219 Z M 276.25 202.191406 " fill-opacity="1" fill-rule="nonzero" />
  <path fill="#312783" d="M 311.167969 184.578125 L 294.136719 195.449219 L 283.539062 178.875 L 286.550781 176.953125 L 295.550781 191.050781 L 309.539062 182.109375 Z M 311.167969 184.578125 " fill-opacity="1" fill-rule="nonzero" />
  <path fill="#312783" d="M 347.914062 163.929688 C 348.078125 164.699219 348.144531 165.476562 348.109375 166.261719 C 348.074219 167.050781 347.9375 167.816406 347.703125 168.570312 C 347.46875 169.320312 347.140625 170.03125 346.722656 170.695312 C 346.304688 171.363281 345.808594 171.964844 345.234375 172.503906 C 344.003906 173.628906 342.644531 174.570312 341.15625 175.328125 C 339.671875 176.085938 338.109375 176.628906 336.476562 176.960938 C 334.839844 177.292969 333.191406 177.402344 331.527344 177.285156 C 329.863281 177.171875 328.246094 176.835938 326.671875 176.277344 C 326.308594 176.144531 325.953125 175.988281 325.605469 175.8125 C 325.261719 175.632812 324.929688 175.433594 324.609375 175.210938 C 324.289062 174.988281 323.984375 174.75 323.695312 174.488281 C 323.40625 174.230469 323.136719 173.949219 322.882812 173.65625 C 322.628906 173.359375 322.394531 173.050781 322.179688 172.726562 C 321.96875 172.402344 321.773438 172.0625 321.605469 171.714844 C 321.433594 171.363281 321.285156 171.003906 321.160156 170.636719 C 321.035156 170.269531 320.9375 169.894531 320.859375 169.511719 C 320.78125 169.128906 320.730469 168.746094 320.703125 168.359375 C 320.675781 167.96875 320.671875 167.582031 320.695312 167.191406 C 320.71875 166.804688 320.765625 166.417969 320.835938 166.035156 C 320.910156 165.652344 321.003906 165.277344 321.125 164.90625 C 321.246094 164.539062 321.386719 164.175781 321.554688 163.824219 C 321.71875 163.472656 321.90625 163.132812 322.117188 162.804688 C 322.328125 162.476562 322.554688 162.164062 322.804688 161.867188 C 323.054688 161.566406 323.324219 161.285156 323.609375 161.023438 C 324.824219 159.886719 326.171875 158.933594 327.648438 158.171875 C 329.128906 157.40625 330.683594 156.855469 332.3125 156.523438 C 333.941406 156.1875 335.589844 156.082031 337.246094 156.203125 C 338.90625 156.324219 340.519531 156.671875 342.085938 157.238281 C 342.8125 157.503906 343.5 157.851562 344.140625 158.292969 C 344.78125 158.730469 345.355469 159.242188 345.867188 159.828125 C 346.375 160.414062 346.804688 161.050781 347.152344 161.746094 C 347.5 162.441406 347.753906 163.167969 347.914062 163.929688 Z M 344.28125 164.667969 C 344.164062 164.113281 343.980469 163.582031 343.726562 163.074219 C 343.472656 162.570312 343.15625 162.105469 342.78125 161.679688 C 342.40625 161.253906 341.980469 160.886719 341.507812 160.574219 C 341.035156 160.261719 340.53125 160.015625 339.996094 159.832031 C 337.671875 158.964844 335.308594 158.820312 332.898438 159.402344 C 331.617188 159.609375 330.398438 160.011719 329.246094 160.613281 C 328.09375 161.21875 327.066406 161.992188 326.167969 162.929688 C 325.988281 163.121094 325.820312 163.320312 325.664062 163.53125 C 325.503906 163.738281 325.363281 163.957031 325.230469 164.183594 C 325.101562 164.414062 324.984375 164.644531 324.882812 164.886719 C 324.777344 165.128906 324.691406 165.375 324.617188 165.625 C 324.542969 165.878906 324.484375 166.132812 324.445312 166.390625 C 324.402344 166.648438 324.375 166.910156 324.363281 167.171875 C 324.351562 167.433594 324.355469 167.695312 324.375 167.957031 C 324.394531 168.21875 324.429688 168.476562 324.480469 168.734375 C 324.53125 168.992188 324.597656 169.242188 324.679688 169.492188 C 324.761719 169.742188 324.859375 169.984375 324.96875 170.222656 C 325.078125 170.460938 325.203125 170.691406 325.34375 170.914062 C 325.480469 171.132812 325.632812 171.347656 325.792969 171.550781 C 325.957031 171.757812 326.132812 171.949219 326.320312 172.132812 C 326.507812 172.316406 326.707031 172.488281 326.914062 172.648438 C 327.121094 172.808594 327.335938 172.957031 327.5625 173.089844 C 327.789062 173.222656 328.019531 173.34375 328.257812 173.449219 C 329.46875 173.949219 330.726562 174.246094 332.03125 174.335938 C 333.335938 174.429688 334.621094 174.3125 335.890625 173.984375 C 337.175781 173.789062 338.398438 173.390625 339.558594 172.792969 C 340.714844 172.195312 341.746094 171.425781 342.652344 170.488281 C 343.390625 169.714844 343.90625 168.8125 344.191406 167.78125 C 344.480469 166.75 344.511719 165.714844 344.28125 164.667969 Z M 344.28125 164.667969 " fill-opacity="1" fill-rule="nonzero" />
  <path fill="#312783" d="M 410.949219 191.0625 L 407.734375 189.496094 L 414.796875 175.058594 L 414.722656 175.058594 L 399.160156 181.617188 L 394.875 165.234375 L 394.800781 165.234375 L 387.726562 179.675781 L 384.511719 178.113281 L 393.160156 160.445312 L 397.15625 162.40625 L 401.1875 177.617188 L 415.65625 171.507812 L 419.640625 173.460938 Z M 410.949219 191.0625 " fill-opacity="1" fill-rule="nonzero" />
  <path fill="#312783" d="M 426.8125 204.742188 L 424.164062 202.363281 L 437.324219 187.75 L 439.972656 190.128906 Z M 426.8125 204.742188 " fill-opacity="1" fill-rule="nonzero" />
  <path fill="#312783" d="M 451.503906 233.324219 L 439.1875 217.363281 L 454.761719 205.34375 L 456.902344 208.171875 L 443.65625 218.390625 L 453.816406 231.546875 Z M 451.503906 233.324219 " fill-opacity="1" fill-rule="nonzero" />
  <path fill="#312783" d="M 460.707031 249.234375 L 458.972656 246.113281 L 476.117188 236.550781 L 477.855469 239.671875 Z M 460.707031 249.234375 " fill-opacity="1" fill-rule="nonzero" />
  <path fill="#312783" d="M 492.097656 278.71875 L 488.304688 269.164062 L 472.765625 275.339844 L 471.445312 272.027344 L 487.039062 265.851562 L 483.246094 256.300781 L 485.96875 255.226562 L 494.832031 277.644531 Z M 492.097656 278.71875 " fill-opacity="1" fill-rule="nonzero" />
  <path fill="#312783" d="M 486.34375 322.5 L 485.453125 318.695312 L 489.183594 315.277344 L 485.859375 301.230469 L 481.003906 299.828125 L 480.117188 296.03125 L 501.851562 302.601562 L 502.921875 306.976562 Z M 491.625 312.925781 L 499.640625 305.421875 L 489.105469 302.207031 Z M 491.625 312.925781 " fill-opacity="1" fill-rule="nonzero" />
  <path fill="#312783" d="M 490.703125 361.34375 L 490.328125 357.214844 L 497.273438 350.785156 L 496.289062 339.976562 L 488.785156 340.652344 L 488.464844 337.09375 L 508.042969 335.324219 L 509.578125 352.21875 C 509.726562 353.15625 509.707031 354.089844 509.515625 355.023438 C 509.324219 355.953125 508.976562 356.820312 508.472656 357.625 C 507.96875 358.3125 507.34375 358.863281 506.59375 359.269531 C 505.839844 359.679688 505.039062 359.90625 504.1875 359.949219 C 503.441406 360.046875 502.710938 359.992188 501.992188 359.785156 C 501.273438 359.574219 500.625 359.230469 500.050781 358.75 C 498.921875 357.703125 498.207031 356.421875 497.90625 354.910156 Z M 500.347656 352.476562 C 500.59375 355.222656 501.726562 356.5 503.757812 356.316406 C 505.902344 356.113281 506.863281 354.535156 506.597656 351.578125 L 505.460938 339.097656 L 499.191406 339.664062 Z M 500.347656 352.476562 " fill-opacity="1" fill-rule="nonzero" />
  <path fill="#009640" d="M 482.871094 375.730469 C 482.871094 481.472656 425.578125 567.195312 354.921875 567.195312 C 284.265625 567.195312 226.964844 481.429688 226.964844 375.730469 C 226.964844 270.035156 284.257812 184.265625 354.921875 184.265625 C 425.589844 184.265625 482.871094 269.992188 482.871094 375.730469 Z M 482.871094 375.730469 " fill-opacity="1" fill-rule="nonzero" />
  <path fill="#ffcc00" d="M 448.910156 375.730469 C 448.910156 460.941406 406.824219 530.015625 354.921875 530.015625 C 303.019531 530.015625 260.914062 460.972656 260.914062 375.730469 C 260.914062 290.488281 302.988281 221.445312 354.902344 221.445312 C 406.8125 221.445312 448.910156 290.511719 448.910156 375.730469 Z M 448.910156 375.730469 " fill-opacity="1" fill-rule="nonzero" />
  <path fill="#312783" d="M 414.089844 375.730469 C 414.089844 440.164062 387.597656 492.40625 354.921875 492.40625 C 322.246094 492.40625 295.746094 440.164062 295.746094 375.730469 C 295.746094 311.296875 322.238281 259.066406 354.921875 259.066406 C 387.609375 259.066406 414.089844 311.296875 414.089844 375.730469 Z M 414.089844 375.730469 " fill-opacity="1" fill-rule="nonzero" />
  <path fill="#ffffff" d="M 358.394531 299.644531 L 372.488281 301.039062 L 361.4375 309.988281 L 365.296875 323.210938 L 353.433594 315.445312 L 341.964844 323.210938 L 345.394531 309.433594 L 334.691406 301.144531 L 348.308594 299.976562 L 353.347656 286.820312 Z M 358.394531 299.644531 " fill-opacity="1" fill-rule="evenodd" />
  <path fill="#ffffff" d="M 327.5625 357.3125 L 341.644531 358.707031 L 330.59375 367.65625 L 334.453125 380.867188 L 322.589844 373.105469 L 311.132812 380.875 L 314.550781 367.101562 L 303.847656 358.800781 L 317.46875 357.632812 L 322.515625 344.480469 Z M 327.5625 357.3125 " fill-opacity="1" fill-rule="evenodd" />
  <path fill="#ffffff" d="M 391.886719 348.734375 L 405.988281 350.128906 L 394.9375 359.082031 L 398.785156 372.300781 L 386.921875 364.539062 L 375.46875 372.300781 L 378.886719 358.523438 L 368.191406 350.238281 L 381.8125 349.058594 L 386.847656 335.902344 Z M 391.886719 348.734375 " fill-opacity="1" fill-rule="evenodd" />
  <path fill="#ffffff" d="M 382.476562 385.882812 L 374.726562 392.144531 L 377.417969 401.363281 L 369.144531 395.949219 L 361.136719 401.375 L 363.527344 391.746094 L 356.058594 385.957031 L 365.566406 385.132812 L 369.078125 375.945312 L 372.617188 384.90625 Z M 382.476562 385.882812 " fill-opacity="1" fill-rule="evenodd" />
  <path fill="#ffffff" d="M 361.804688 438.351562 L 376.429688 439.800781 L 364.964844 449.082031 L 368.960938 462.796875 L 356.648438 454.734375 L 344.761719 462.796875 L 348.308594 448.503906 L 337.21875 439.90625 L 351.34375 438.683594 L 356.5625 425.035156 Z M 361.804688 438.351562 " fill-opacity="1" fill-rule="evenodd" />
  <path fill="#312783" d="M 229.953125 458.730469 C 230.960938 462.304688 230.917969 465.355469 229.824219 467.878906 C 229.300781 469.128906 228.527344 470.199219 227.496094 471.082031 C 226.464844 471.964844 225.292969 472.570312 223.972656 472.894531 C 222.699219 473.261719 221.40625 473.316406 220.105469 473.058594 C 218.800781 472.796875 217.628906 472.253906 216.589844 471.425781 C 215.460938 470.5625 214.503906 469.539062 213.722656 468.351562 C 212.941406 467.164062 212.378906 465.878906 212.035156 464.5 L 208.210938 450.949219 L 226.3125 445.835938 Z M 214.832031 464.019531 C 215.054688 464.941406 215.4375 465.789062 215.980469 466.566406 C 216.527344 467.34375 217.191406 467.996094 217.984375 468.519531 C 218.730469 469.003906 219.542969 469.308594 220.425781 469.425781 C 221.308594 469.546875 222.171875 469.472656 223.019531 469.207031 C 223.929688 468.980469 224.746094 468.570312 225.464844 467.96875 C 226.1875 467.367188 226.738281 466.640625 227.125 465.785156 C 227.523438 464.832031 227.742188 463.835938 227.78125 462.800781 C 227.820312 461.765625 227.675781 460.753906 227.351562 459.773438 L 224.574219 449.972656 L 211.875 453.566406 Z M 214.832031 464.019531 " fill-opacity="1" fill-rule="nonzero" />
  <path fill="#312783" d="M 231.496094 512.914062 L 221.9375 492.910156 L 238.902344 484.792969 L 248.121094 504.09375 L 245.589844 505.304688 L 237.886719 489.222656 L 233.523438 491.300781 L 238.882812 502.496094 L 236.351562 503.707031 L 230.992188 492.515625 L 225.980469 494.914062 L 234.039062 511.757812 Z M 231.496094 512.914062 " fill-opacity="1" fill-rule="nonzero" />
  <path fill="#312783" d="M 276.914062 549.550781 C 275.867188 546.363281 274.207031 543.542969 271.933594 541.078125 C 270.824219 539.777344 269.527344 538.703125 268.042969 537.863281 C 266.96875 537.339844 266.082031 537.339844 265.492188 537.863281 C 264.902344 538.386719 264.859375 539.289062 265.425781 540.445312 C 266.128906 541.726562 266.96875 542.902344 267.945312 543.984375 C 269.808594 546.234375 271.03125 547.746094 271.589844 548.5 C 272.921875 550.117188 273.835938 551.949219 274.332031 553.988281 C 274.46875 554.703125 274.414062 555.40625 274.175781 556.097656 C 273.9375 556.785156 273.542969 557.367188 272.992188 557.847656 C 272.640625 558.175781 272.246094 558.445312 271.816406 558.664062 C 271.382812 558.878906 270.929688 559.03125 270.457031 559.117188 C 269.980469 559.203125 269.503906 559.21875 269.023438 559.171875 C 268.542969 559.121094 268.082031 559.003906 267.632812 558.824219 C 265.492188 558.113281 263.121094 556.398438 260.582031 553.675781 C 256.894531 549.71875 254.796875 545.9375 254.292969 542.289062 L 257.261719 542.164062 C 258.21875 545.839844 260.003906 549.054688 262.621094 551.8125 C 263.910156 553.316406 265.441406 554.515625 267.214844 555.402344 C 267.707031 555.691406 268.234375 555.820312 268.804688 555.78125 C 269.371094 555.738281 269.878906 555.542969 270.324219 555.1875 C 271.191406 554.375 271.191406 553.195312 270.324219 551.671875 C 268.945312 549.667969 267.453125 547.753906 265.84375 545.925781 C 264.148438 544.070312 262.777344 541.996094 261.742188 539.707031 C 261.585938 539.34375 261.492188 538.964844 261.460938 538.570312 C 261.425781 538.175781 261.453125 537.785156 261.542969 537.402344 C 261.632812 537.015625 261.78125 536.65625 261.984375 536.316406 C 262.1875 535.976562 262.4375 535.679688 262.738281 535.417969 C 263.066406 535.121094 263.433594 534.875 263.835938 534.679688 C 264.238281 534.484375 264.65625 534.351562 265.097656 534.28125 C 265.539062 534.207031 265.980469 534.199219 266.421875 534.253906 C 266.863281 534.308594 267.289062 534.425781 267.699219 534.605469 C 270.261719 535.632812 272.429688 537.203125 274.203125 539.320312 C 275.621094 540.738281 276.824219 542.316406 277.808594 544.0625 C 278.792969 545.808594 279.523438 547.65625 280 549.601562 Z M 276.914062 549.550781 " fill-opacity="1" fill-rule="nonzero" />
  <path fill="#312783" d="M 304.15625 586.730469 L 300.878906 584.714844 L 300.996094 579.847656 L 288.84375 572.339844 L 284.554688 574.65625 L 281.277344 572.695312 L 300.664062 562.519531 L 304.425781 564.828125 Z M 301.015625 576.566406 L 301.179688 565.972656 L 291.757812 570.894531 Z M 308.949219 562.832031 C 307.449219 563.613281 306.203125 563.710938 305.238281 563.121094 C 304.621094 562.699219 304.085938 562.183594 303.644531 561.578125 C 303.339844 561.117188 302.980469 560.703125 302.570312 560.335938 C 302.175781 560.085938 301.5 560.171875 300.597656 560.582031 L 299.753906 558.660156 C 301.554688 558.179688 302.796875 558.15625 303.503906 558.585938 C 304.066406 558.988281 304.546875 559.476562 304.941406 560.042969 C 305.28125 560.558594 305.695312 561.003906 306.183594 561.386719 C 306.613281 561.652344 307.253906 561.589844 308.15625 561.191406 Z M 308.949219 562.832031 " fill-opacity="1" fill-rule="nonzero" />
  <path fill="#312783" d="M 349.523438 589.367188 C 349.382812 590.109375 349.148438 590.820312 348.820312 591.503906 C 348.496094 592.183594 348.085938 592.8125 347.597656 593.386719 C 347.105469 593.960938 346.550781 594.464844 345.925781 594.890625 C 345.304688 595.320312 344.640625 595.664062 343.925781 595.917969 C 342.378906 596.457031 340.789062 596.789062 339.15625 596.910156 C 337.519531 597.03125 335.898438 596.9375 334.289062 596.628906 C 332.679688 596.320312 331.136719 595.808594 329.660156 595.09375 C 328.1875 594.378906 326.828125 593.484375 325.589844 592.410156 C 325.023438 591.914062 324.53125 591.351562 324.113281 590.722656 C 323.691406 590.097656 323.359375 589.425781 323.113281 588.714844 C 322.867188 588 322.71875 587.265625 322.664062 586.515625 C 322.609375 585.761719 322.652344 585.015625 322.792969 584.273438 C 323.363281 581.316406 325.238281 579.148438 328.441406 577.839844 C 329.972656 577.230469 331.5625 576.859375 333.207031 576.730469 C 334.851562 576.601562 336.476562 576.714844 338.085938 577.082031 C 339.710938 577.335938 341.261719 577.828125 342.734375 578.5625 C 344.207031 579.292969 345.539062 580.230469 346.722656 581.367188 C 347.277344 581.859375 347.761719 582.414062 348.175781 583.03125 C 348.585938 583.648438 348.914062 584.304688 349.160156 585.003906 C 349.40625 585.703125 349.558594 586.421875 349.617188 587.164062 C 349.679688 587.902344 349.648438 588.636719 349.523438 589.367188 Z M 345.929688 588.679688 C 346.027344 588.140625 346.050781 587.601562 346.003906 587.054688 C 345.957031 586.511719 345.835938 585.980469 345.648438 585.46875 C 345.460938 584.957031 345.210938 584.476562 344.894531 584.03125 C 344.578125 583.582031 344.210938 583.1875 343.789062 582.835938 C 341.988281 581.203125 339.890625 580.203125 337.488281 579.835938 C 336.234375 579.53125 334.96875 579.433594 333.683594 579.542969 C 332.402344 579.652344 331.167969 579.960938 329.984375 580.46875 C 329.75 580.566406 329.523438 580.675781 329.304688 580.800781 C 329.085938 580.925781 328.871094 581.0625 328.667969 581.214844 C 328.464844 581.363281 328.273438 581.527344 328.089844 581.699219 C 327.90625 581.875 327.734375 582.0625 327.574219 582.257812 C 327.414062 582.453125 327.265625 582.65625 327.132812 582.871094 C 326.996094 583.085938 326.875 583.304688 326.769531 583.535156 C 326.660156 583.765625 326.566406 584 326.488281 584.238281 C 326.410156 584.480469 326.347656 584.722656 326.296875 584.972656 C 326.25 585.21875 326.214844 585.472656 326.199219 585.722656 C 326.179688 585.976562 326.179688 586.226562 326.191406 586.480469 C 326.203125 586.734375 326.234375 586.984375 326.277344 587.234375 C 326.320312 587.480469 326.382812 587.726562 326.457031 587.96875 C 326.53125 588.210938 326.621094 588.449219 326.722656 588.679688 C 326.828125 588.910156 326.945312 589.132812 327.074219 589.347656 C 327.207031 589.566406 327.351562 589.773438 327.507812 589.972656 C 327.664062 590.167969 327.832031 590.359375 328.011719 590.535156 C 328.976562 591.386719 330.035156 592.09375 331.1875 592.660156 C 332.34375 593.222656 333.550781 593.625 334.816406 593.863281 C 336.078125 594.101562 337.351562 594.167969 338.632812 594.0625 C 339.914062 593.953125 341.15625 593.679688 342.363281 593.238281 C 343.300781 592.824219 344.085938 592.214844 344.71875 591.40625 C 345.351562 590.597656 345.753906 589.691406 345.929688 588.679688 Z M 345.929688 588.679688 " fill-opacity="1" fill-rule="nonzero" />
  <path fill="#312783" d="M 399.160156 569.359375 C 399.996094 568.960938 400.875 568.722656 401.796875 568.640625 C 402.71875 568.554688 403.625 568.636719 404.519531 568.878906 C 405.304688 569.121094 405.992188 569.527344 406.589844 570.089844 C 407.183594 570.65625 407.621094 571.324219 407.90625 572.09375 C 408.269531 572.847656 408.433594 573.644531 408.398438 574.476562 C 408.363281 575.3125 408.136719 576.089844 407.714844 576.8125 C 406.519531 578.519531 404.933594 579.707031 402.957031 580.371094 L 391.296875 585.164062 L 394.027344 591.800781 L 390.8125 593.140625 L 383.65625 575.742188 Z M 401.957031 577.765625 C 404.464844 576.738281 405.347656 575.308594 404.605469 573.476562 C 403.824219 571.546875 402.097656 571.140625 399.449219 572.222656 L 387.953125 576.960938 L 390.246094 582.527344 Z M 401.957031 577.765625 " fill-opacity="1" fill-rule="nonzero" />
  <path fill="#312783" d="M 446.636719 558.609375 L 443.699219 561.074219 L 439.125 559.414062 L 428.183594 568.558594 L 429.007812 573.347656 L 426.0625 575.816406 L 422.589844 554.246094 L 425.984375 551.414062 Z M 436.015625 558.351562 L 426.039062 554.8125 L 427.691406 565.308594 Z M 436.015625 558.351562 " fill-opacity="1" fill-rule="nonzero" />
  <path fill="#312783" d="M 467.675781 522.382812 C 469.25 523.539062 469.902344 525.332031 469.625 527.742188 C 469.148438 530.792969 467.949219 533.523438 466.023438 535.933594 C 464.304688 538.523438 462.066406 540.527344 459.304688 541.949219 C 457.054688 542.957031 455.136719 542.890625 453.570312 541.753906 L 443.273438 534.25 L 445.339844 531.410156 L 454.984375 538.453125 C 455.570312 538.886719 456.226562 539.125 456.957031 539.164062 C 457.683594 539.207031 458.363281 539.042969 458.992188 538.679688 C 460.90625 537.574219 462.464844 536.09375 463.664062 534.238281 C 465.054688 532.535156 465.972656 530.605469 466.421875 528.449219 C 466.5625 527.738281 466.5 527.046875 466.234375 526.375 C 465.96875 525.699219 465.542969 525.152344 464.953125 524.730469 L 455.308594 517.6875 L 457.375 514.84375 Z M 467.675781 522.382812 " fill-opacity="1" fill-rule="nonzero" />
  <path fill="#312783" d="M 490.90625 490.433594 L 482.453125 508.402344 L 465.433594 500.394531 L 466.921875 497.175781 L 481.402344 503.996094 L 488.367188 489.191406 Z M 490.90625 490.433594 " fill-opacity="1" fill-rule="nonzero" />
  <path fill="#312783" d="M 494.914062 446.734375 C 495.644531 446.9375 496.332031 447.234375 496.984375 447.617188 C 497.636719 448 498.226562 448.460938 498.757812 449 C 499.285156 449.539062 499.738281 450.136719 500.113281 450.796875 C 500.484375 451.453125 500.769531 452.148438 500.960938 452.878906 C 501.363281 454.46875 501.550781 456.082031 501.527344 457.71875 C 501.503906 459.355469 501.269531 460.964844 500.820312 462.539062 C 500.375 464.117188 499.730469 465.609375 498.890625 467.015625 C 498.050781 468.421875 497.042969 469.695312 495.871094 470.835938 C 495.324219 471.359375 494.726562 471.800781 494.066406 472.167969 C 493.40625 472.535156 492.710938 472.808594 491.980469 472.992188 C 491.246094 473.175781 490.503906 473.261719 489.75 473.25 C 488.996094 473.238281 488.257812 473.132812 487.53125 472.925781 C 484.625 472.105469 482.632812 470.042969 481.550781 466.742188 C 481.132812 465.160156 480.929688 463.554688 480.941406 461.917969 C 480.953125 460.285156 481.183594 458.679688 481.625 457.109375 C 482.070312 455.535156 482.714844 454.046875 483.558594 452.648438 C 484.402344 451.25 485.417969 449.984375 486.601562 448.859375 C 489.242188 446.621094 492.015625 445.914062 494.914062 446.734375 Z M 493.929688 450.25 C 493.402344 450.105469 492.867188 450.03125 492.320312 450.027344 C 491.773438 450.023438 491.238281 450.09375 490.710938 450.234375 C 490.179688 450.371094 489.679688 450.578125 489.207031 450.851562 C 488.734375 451.121094 488.304688 451.453125 487.917969 451.839844 C 486.136719 453.492188 484.957031 455.5 484.382812 457.863281 C 483.976562 459.082031 483.777344 460.332031 483.777344 461.617188 C 483.777344 462.898438 483.976562 464.148438 484.382812 465.367188 C 484.457031 465.609375 484.550781 465.84375 484.65625 466.074219 C 484.761719 466.304688 484.878906 466.527344 485.011719 466.742188 C 485.148438 466.957031 485.292969 467.160156 485.449219 467.359375 C 485.609375 467.554688 485.777344 467.742188 485.960938 467.917969 C 486.140625 468.09375 486.332031 468.257812 486.535156 468.410156 C 486.734375 468.5625 486.945312 468.703125 487.164062 468.832031 C 487.382812 468.957031 487.609375 469.070312 487.839844 469.167969 C 488.074219 469.269531 488.308594 469.351562 488.554688 469.421875 C 488.796875 469.492188 489.042969 469.546875 489.292969 469.585938 C 489.539062 469.628906 489.792969 469.652344 490.042969 469.660156 C 490.296875 469.667969 490.546875 469.664062 490.800781 469.640625 C 491.050781 469.617188 491.300781 469.582031 491.546875 469.527344 C 491.796875 469.476562 492.039062 469.40625 492.277344 469.324219 C 492.515625 469.242188 492.75 469.144531 492.976562 469.035156 C 493.203125 468.921875 493.421875 468.800781 493.632812 468.660156 C 493.84375 468.523438 494.046875 468.371094 494.242188 468.210938 C 496.214844 466.480469 497.503906 464.335938 498.097656 461.777344 C 498.507812 460.5625 498.714844 459.3125 498.726562 458.027344 C 498.734375 456.746094 498.542969 455.492188 498.152344 454.273438 C 497.835938 453.285156 497.304688 452.4375 496.554688 451.722656 C 495.804688 451.007812 494.929688 450.519531 493.929688 450.25 Z M 493.929688 450.25 " fill-opacity="1" fill-rule="nonzero" />
</svg>