<svg xmlns="http://www.w3.org/2000/svg" id="Layer_1" data-name="Layer 1" viewBox="144.13 164.6 659.85 656.43"><defs><style>.cls-1,.cls-4,.cls-6{fill:#fff;}.cls-1{stroke:#fff;stroke-miterlimit:10;stroke-width:0.65px;}.cls-2{fill:#312783;}.cls-3{fill:#fc0;}.cls-5{fill:#009640;}.cls-6{fill-rule:evenodd;}</style></defs><path class="cls-1" d="M474.13,820.71a6.74,6.74,0,0,1-4.49-1.73l-.43-.39-.35-.45c-9.23-12-16.47-17.66-32.27-25.35-1.87-.9-4.06-1.94-6.51-3.09-21.31-10-61-28.73-84.1-56.47-9-10.75-21.32-35.22-28-48.37l-.81-1.62a44.63,44.63,0,0,0-7.78,5.39l-7.88,6.67-2.3-10.06c-2.82-12.35,3-45.5,6.87-55.31l5.24-13.36,6.25,12.92C324.19,643.09,329,648.12,343,659c-21.07-35.9-33.89-79.87-36.59-125.92h-57l-1.63-1.16c-.9-.63-21.15-15.29-22.7-40.05-6.27-4.31-18.73-15.7-19.54-38.58a51.48,51.48,0,0,1-20-39.2c-6.39-4.65-20.23-17.11-20.59-38.24-6.87-5.23-22.2-19.94-20.34-46.2l.41-5.83h192a7.88,7.88,0,0,1,6.91,4.08l12,22.3c26.08-35.21,59.75-57.76,96.06-64.26l.21-5.68c-7.57-.84-22.3-2.69-36.9-5.61-1.57-.25-6.35-1.33-8.75-5.81l-.57-1.07-.13-1.2a104.16,104.16,0,0,1-.26-16.38,7.78,7.78,0,0,1,6.17-7.7c1.56-.41,19.15-5,41.47-9a20.63,20.63,0,0,0,.13-4.06,35.57,35.57,0,1,1,41.38,0,19.92,19.92,0,0,0,.12,4c22.31,4,39.89,8.53,41.48,9a7.76,7.76,0,0,1,6.16,7.7,104.91,104.91,0,0,1-.25,16.38l-.13,1.21-.58,1.07c-2.39,4.47-7.17,5.55-8.74,5.8-14.59,2.92-29.32,4.77-36.9,5.61l.2,5.68c36.32,6.5,70,29,96.07,64.26l12-22.28a7.87,7.87,0,0,1,6.92-4.1h192l.41,5.83c1.85,26.26-13.47,41-20.35,46.2-.35,21.13-14.19,33.59-20.58,38.23a51.46,51.46,0,0,1-20,39.21c-.8,22.88-13.26,34.27-19.53,38.58-1.55,24.76-21.8,39.42-22.7,40.05l-1.63,1.16h-57c-2.7,46.05-15.52,90-36.59,125.92,14-10.85,18.84-15.88,25.41-29.48l6.25-12.92,5.25,13.36c3.85,9.81,9.69,43,6.86,55.31l-2.3,10-7.87-6.66a45.19,45.19,0,0,0-7.78-5.39l-.81,1.62c-6.64,13.14-19,37.62-28,48.37-23.12,27.74-62.78,46.43-84.1,56.47-2.44,1.15-4.63,2.19-6.5,3.09-15.81,7.69-23,13.37-32.28,25.35l-.28.37-.33.31A6.79,6.79,0,0,1,474.13,820.71ZM339.28,676c5.47,8.67,16.73,23.31,32,37.4,16.55,15.3,41.83,33.54,68.18,33.54h0c1.71,0,3.43-.08,5.1-.24.52,0,1.77-1.08,2.93-4.7-36.06-7.85-69.44-31.75-94.81-68l-6.43.9C343.14,675.33,341,675.64,339.28,676ZM500.9,742c1,3.51,2.19,4.66,2.81,4.72,1.68.16,3.4.24,5.11.24,26.36,0,51.63-18.24,68.19-33.54,15.25-14.09,26.52-28.73,32-37.4-1.73-.34-3.85-.65-7-1.09l-6.43-.9C570.26,710.19,536.92,734.08,500.9,742Zm-26.76-550a8.6,8.6,0,1,0,8.6,8.6A8.61,8.61,0,0,0,474.14,191.92Z"></path><path class="cls-2" d="M359.19,369.39,338.47,331a1.6,1.6,0,0,0-1.39-.78H150.89c-2.08,29.47,20.42,42.5,20.42,42.5-1.41,25.78,20.48,38.09,20.48,38.09-.35,27.61,20,39.29,20,39.29-.44,28.95,19.48,38.3,19.48,38.3-.33,24,20.14,38.53,20.14,38.53h62.19"></path><path class="cls-2" d="M589.09,369.39,609.81,331a1.58,1.58,0,0,1,1.39-.78H797.39c2.08,29.47-20.43,42.5-20.43,42.5,1.41,25.78-20.47,38.09-20.47,38.09.35,27.61-20,39.29-20,39.29C736.9,479,717,488.36,717,488.36c.33,24-20.14,38.53-20.14,38.53H634.65"></path><path class="cls-3" d="M355.69,371.92l-19.55-37.33a1.58,1.58,0,0,0-1.39-.78H154.64c0,25.41,18.85,35.21,18.85,35.21h96.4l47.17,149.65Z"></path><path class="cls-3" d="M266.38,372.55l11.13,34.54H194.62a38.72,38.72,0,0,1-19.87-34.54Z"></path><path class="cls-3" d="M291,450.06l11.15,34.55H231.84s-16.52-9.61-16.52-34.55Z"></path><path class="cls-3" d="M303,488.15l10.94,34.54H252.8s-16.52-9.61-16.52-34.54Z"></path><path class="cls-3" d="M278.4,410.78l11.32,35.45H213.5s-18.14-9.87-18.14-35.45Z"></path><path class="cls-3" d="M592.59,371.92l19.55-37.33a1.58,1.58,0,0,1,1.39-.78H793.64c0,25.41-18.85,35.21-18.85,35.21h-96.4L631.22,518.67Z"></path><path class="cls-3" d="M681.9,372.55l-11.13,34.54h82.89a38.72,38.72,0,0,0,19.86-34.54Z"></path><path class="cls-3" d="M657.33,450.06l-11.15,34.55h70.26S733,475,733,450.06Z"></path><path class="cls-3" d="M645.32,488.15l-10.93,34.54h61.09S712,513.08,712,488.15Z"></path><path class="cls-3" d="M669.88,410.78l-11.32,35.45h76.22s18.13-9.87,18.13-35.45Z"></path><path class="cls-2" d="M636.31,632.34c-8.19,16.94-14.49,22-33.41,36.45,7.81,1.09,10.08,1.51,15.24,3.56-5.79,14.58-60,85.8-115,80.7-5.9-.55-8.44-7.53-9.65-15.94,80.34-13.24,142.63-107.84,142.63-222.58,0-116.36-64-212-146-223.11l-.52-14.65c0-2.24,3.27-2.39,3.27-2.39,6.74-.72,22.92-2.61,39-5.84,0,0,3.09-.36,4.27-2.57a100.42,100.42,0,0,0,.21-15.66s.2-1.28-1.39-1.64c0,0-19.28-5.1-43.2-9.24a3,3,0,0,1-2.64-2.48c-.34-2.45-1.12-6.56,0-11.13a29.3,29.3,0,1,0-29.92,0c1.14,4.57.36,8.68,0,11.13a3.05,3.05,0,0,1-2.65,2.48c-23.92,4.14-43.19,9.24-43.19,9.24-1.6.36-1.39,1.64-1.39,1.64a99,99,0,0,0,.21,15.66c1.18,2.21,4.27,2.57,4.27,2.57,16.05,3.23,32.24,5.12,39,5.84,0,0,3.26.15,3.26,2.39l-.52,14.65c-82,11.1-146,106.75-146,223.11,0,114.85,62.41,209.52,142.86,222.62-1.32,8.37-4.06,15.36-9.89,15.9-55,5.1-109.21-66.12-115-80.7,5.16-2.05,7.42-2.47,15.24-3.56-18.92-14.41-25.22-19.51-33.42-36.45-3.85,9.82-8.94,41.35-6.59,51.61a44.81,44.81,0,0,1,14.72-8.63c1.88,2.95,19.67,40.77,30.71,54,24.9,29.86,70.89,49.36,88.53,57.93,16.08,7.82,24.3,13.93,34.5,27.16a.45.45,0,0,0,.62,0c10.19-13.23,18.41-19.34,34.49-27.16,17.65-8.57,63.64-28.07,88.53-57.93,11-13.24,28.84-51.06,30.72-54A44.81,44.81,0,0,1,642.91,684C645.25,673.69,640.17,642.16,636.31,632.34Zm-177-431.71a14.88,14.88,0,1,1,14.88,14.88A14.88,14.88,0,0,1,459.26,200.63Z"></path><path class="cls-4" d="M629.38,514.5C629.38,634,559.69,731,473.72,731S318.05,634,318.05,514.5,387.74,298,473.72,298,629.38,394.94,629.38,514.5Z"></path><path class="cls-2" d="M335.47,475.56l.72,3.09c-2.16,1.85-3.4,4.59-3.72,8.24a11,11,0,0,0,1.33,6.92,6.1,6.1,0,0,0,9.95.93,11.48,11.48,0,0,0,2.53-6.8q.5-5.29-2.24-8.6l1.69-2.72a13,13,0,0,1,2.88,5.17,18.7,18.7,0,0,1,.43,6.59,15.16,15.16,0,0,1-3.22,8.59,8.56,8.56,0,0,1-14.47-1.36,15.1,15.1,0,0,1-1.66-9Q330.37,479.13,335.47,475.56Z"></path><path class="cls-2" d="M330,451.63l3.43,4.21-.34,1.66-3.73-2.72Zm23.13,6.53-.67,3.26-18-3.67.67-3.26Z"></path><path class="cls-2" d="M364,420.28,362.78,424l-8.34,3-3.18,9.62,6.64,2.19-1,3.16-17.41-5.76,5-15a7.32,7.32,0,0,1,3-4.22,5.28,5.28,0,0,1,4.58-.39,5,5,0,0,1,3.09,2.57,6.65,6.65,0,0,1,.42,4.08Zm-11.57,4c.81-2.44.31-4-1.48-4.55s-3.32.36-4.2,3l-3.67,11.1,5.58,1.85Z"></path><path class="cls-2" d="M368.68,379.19l-.57,3.12q-4.07,1.26-6.69,6.09a11.1,11.1,0,0,0-1.52,6.88,6.1,6.1,0,0,0,8.77,4.79,11.44,11.44,0,0,0,5-5.23c1.7-3.12,2.14-6,1.35-8.79l2.63-1.82a12.88,12.88,0,0,1,.59,5.89,18.27,18.27,0,0,1-2.21,6.22,15.21,15.21,0,0,1-6.36,6.61,8.56,8.56,0,0,1-12.75-7,15.1,15.1,0,0,1,2-8.89Q362.57,380.44,368.68,379.19Z"></path><path class="cls-2" d="M400.31,352.62c1.43,1.26,1.91,3.05,1.45,5.35a16,16,0,0,1-4.11,7.43,16.32,16.32,0,0,1-6.91,5c-2.25.73-4.08.46-5.49-.79L376,361.4l2.21-2.49,8.75,7.74a3.58,3.58,0,0,0,3.82.64,16.26,16.26,0,0,0,7.94-9,3.6,3.6,0,0,0-1.11-3.71l-8.75-7.74,2.21-2.49Z"></path><path class="cls-2" d="M432.89,336.19,417,346.33l-9.89-15.46,2.81-1.79,8.4,13.15,13.05-8.34Z"></path><path class="cls-2" d="M467.18,316.93a8.51,8.51,0,0,1-2.5,8,17.19,17.19,0,0,1-17.32,3.52,8.5,8.5,0,0,1-2.86-14.23,16.83,16.83,0,0,1,17.24-3.53A8.52,8.52,0,0,1,467.18,316.93Zm-3.39.69a6.06,6.06,0,0,0-4-4.51,11.29,11.29,0,0,0-6.62-.4,11.08,11.08,0,0,0-6.28,3.29,6.11,6.11,0,0,0,1.95,9.81,11.27,11.27,0,0,0,7.12.5,11.12,11.12,0,0,0,6.31-3.26A6,6,0,0,0,463.79,317.62Z"></path><path class="cls-2" d="M526,342.24l-3-1.46,6.59-13.47-.07,0L515,333.43l-4-15.28-.07,0-6.6,13.47-3-1.46,8.07-16.48,3.73,1.83,3.76,14.19L530.39,324l3.72,1.82Z"></path><path class="cls-2" d="M540.8,355l-2.47-2.22,12.28-13.63,2.47,2.22Z"></path><path class="cls-2" d="M563.84,381.66l-11.49-14.89,14.53-11.21,2,2.64-12.36,9.53L566,380Z"></path><path class="cls-2" d="M572.43,396.5l-1.62-2.91,16-8.92,1.62,2.91Z"></path><path class="cls-2" d="M601.72,424l-3.54-8.91-14.5,5.76-1.23-3.09L597,412l-3.54-8.91,2.54-1L604.27,423Z"></path><path class="cls-2" d="M596.35,464.84l-.83-3.55L599,458.1,595.9,445l-4.53-1.31-.83-3.54,20.28,6.13,1,4.08Zm4.93-8.93,7.48-7-9.83-3Z"></path><path class="cls-2" d="M600.42,501.07l-.35-3.85,6.48-6-.92-10.08-7,.63-.3-3.32,18.27-1.65,1.43,15.76A7.31,7.31,0,0,1,617,497.6a5.29,5.29,0,0,1-4,2.17,5,5,0,0,1-3.86-1.12,6.65,6.65,0,0,1-2-3.58Zm9-8.27q.34,3.84,3.18,3.58c2-.19,2.9-1.66,2.65-4.42l-1.06-11.64-5.85.53Z"></path><path class="cls-5" d="M593.11,514.49c0,98.63-53.46,178.59-119.39,178.59s-119.4-80-119.4-178.59S407.78,335.9,473.72,335.9,593.11,415.86,593.11,514.49Z"></path><path class="cls-3" d="M561.42,514.49c0,79.48-39.27,143.91-87.7,143.91S386,594,386,514.49s39.26-143.91,87.7-143.91S561.42,435,561.42,514.49Z"></path><path class="cls-2" d="M528.93,514.49c0,60.1-24.72,108.83-55.21,108.83S418.5,574.59,418.5,514.49s24.72-108.82,55.22-108.82S528.93,454.39,528.93,514.49Z"></path><polygon class="cls-6" points="476.96 443.52 490.11 444.82 479.8 453.17 483.4 465.5 472.33 458.26 461.63 465.5 464.83 452.65 454.84 444.92 467.55 443.83 472.25 431.56 476.96 443.52 476.96 443.52"></polygon><polygon class="cls-6" points="448.19 497.31 461.33 498.61 451.02 506.96 454.62 519.28 443.55 512.04 432.86 519.29 436.05 506.44 426.06 498.7 438.77 497.61 443.48 485.34 448.19 497.31 448.19 497.31"></polygon><polygon class="cls-6" points="508.21 489.31 521.37 490.61 511.06 498.96 514.65 511.29 503.58 504.05 492.89 511.29 496.08 498.44 486.1 490.71 498.81 489.61 503.51 477.34 508.21 489.31 508.21 489.31"></polygon><polygon class="cls-6" points="499.43 523.96 492.2 529.8 494.71 538.4 486.99 533.35 479.52 538.41 481.75 529.43 474.78 524.03 483.65 523.26 486.93 514.69 490.23 523.05 499.43 523.96 499.43 523.96"></polygon><polygon class="cls-6" points="480.14 572.9 493.79 574.25 483.09 582.91 486.82 595.7 475.33 588.18 464.24 595.7 467.55 582.37 457.2 574.35 470.38 573.21 475.25 560.48 480.14 572.9 480.14 572.9"></polygon><path class="cls-2" d="M357.11,591.91q1.41,5-.12,8.53a8,8,0,0,1-5.46,4.68,7.66,7.66,0,0,1-6.89-1.37,11.68,11.68,0,0,1-4.25-6.46l-3.57-12.64,16.89-4.77ZM343,596.84a7,7,0,0,0,2.94,4.2,5.57,5.57,0,0,0,4.7.64,5.7,5.7,0,0,0,3.83-3.19,8,8,0,0,0,.21-5.61l-2.59-9.14-11.85,3.35Z"></path><path class="cls-2" d="M358.55,642.45l-8.92-18.66,15.83-7.57,8.6,18-2.36,1.13-7.19-15-4.07,1.94,5,10.44-2.36,1.13-5-10.44-4.68,2.24,7.52,15.71Z"></path><path class="cls-2" d="M400.93,676.62a21.59,21.59,0,0,0-4.65-7.9,13.46,13.46,0,0,0-3.63-3c-1-.49-1.83-.49-2.38,0s-.59,1.33-.06,2.41a17.39,17.39,0,0,0,2.35,3.3c1.74,2.1,2.88,3.51,3.4,4.21a12.82,12.82,0,0,1,2.56,5.12,3.83,3.83,0,0,1-1.25,3.6,4.73,4.73,0,0,1-5,.91c-2-.66-4.21-2.26-6.58-4.8-3.44-3.69-5.4-7.22-5.87-10.62l2.77-.12a20.62,20.62,0,0,0,5,9,13.74,13.74,0,0,0,4.29,3.35,2.56,2.56,0,0,0,2.9-.2c.81-.76.81-1.86,0-3.28a57.31,57.31,0,0,0-4.18-5.36,22.09,22.09,0,0,1-3.83-5.8,3.5,3.5,0,0,1,.93-4,4.33,4.33,0,0,1,4.63-.76,15.39,15.39,0,0,1,6.07,4.4,20.42,20.42,0,0,1,5.41,9.59Z"></path><path class="cls-2" d="M426.35,711.3l-3.06-1.88.11-4.54-11.34-7-4,2.16L405,698.21l18.09-9.49,3.51,2.15Zm-2.93-9.48.15-9.88-8.79,4.59Zm7.4-12.81c-1.4.73-2.56.82-3.46.27a6.14,6.14,0,0,1-1.49-1.44,6.1,6.1,0,0,0-1-1.16c-.37-.23-1-.15-1.84.23l-.79-1.79c1.68-.45,2.84-.47,3.5-.07a5.53,5.53,0,0,1,1.34,1.36,5.39,5.39,0,0,0,1.16,1.25c.4.25,1,.19,1.84-.18Z"></path><path class="cls-2" d="M468.68,713.76a8.08,8.08,0,0,1-5.22,6.11,17.38,17.38,0,0,1-17.11-3.27,8.1,8.1,0,0,1-2.61-7.59c.53-2.76,2.28-4.78,5.27-6a15.23,15.23,0,0,1,9-.71,15,15,0,0,1,8.06,4A8.13,8.13,0,0,1,468.68,713.76Zm-3.35-.64a5.76,5.76,0,0,0-2-5.45,11.26,11.26,0,0,0-5.88-2.8,11.11,11.11,0,0,0-7,.59,5.74,5.74,0,0,0-1.84,9.39A13.3,13.3,0,0,0,462,717.37,5.72,5.72,0,0,0,465.33,713.12Z"></path><path class="cls-2" d="M515,695.1a7.22,7.22,0,0,1,5-.45,4.92,4.92,0,0,1,3.16,3,4.69,4.69,0,0,1-.18,4.4,8.86,8.86,0,0,1-4.44,3.32l-10.88,4.47,2.55,6.19-3,1.25-6.68-16.23Zm2.61,7.84q3.51-1.44,2.47-4c-.73-1.8-2.34-2.18-4.81-1.17l-10.73,4.42,2.14,5.19Z"></path><path class="cls-2" d="M559.3,685.07l-2.74,2.3-4.27-1.55-10.21,8.53.77,4.47-2.75,2.3L536.86,681l3.17-2.64Zm-9.91-.24-9.31-3.3,1.54,9.79Z"></path><path class="cls-2" d="M578.93,651.28c1.47,1.08,2.08,2.75,1.82,5a16.28,16.28,0,0,1-3.36,7.64,16.69,16.69,0,0,1-6.27,5.61c-2.1.94-3.89.88-5.35-.18l-9.61-7,1.93-2.65,9,6.57a3.41,3.41,0,0,0,3.74.21,12.86,12.86,0,0,0,4.36-4.14,12.59,12.59,0,0,0,2.57-5.4,3.43,3.43,0,0,0-1.37-3.47l-9-6.57,1.93-2.65Z"></path><path class="cls-2" d="M600.61,621.48l-7.89,16.76-15.88-7.47,1.39-3,13.51,6.36,6.5-13.81Z"></path><path class="cls-2" d="M604.35,580.72a8.08,8.08,0,0,1,5.64,5.73,17.4,17.4,0,0,1-4.75,16.75,8.07,8.07,0,0,1-7.78,1.95q-4.07-1.15-5.58-5.77a17,17,0,0,1,4.71-16.68Q600.29,579.57,604.35,580.72Zm-.92,3.28a5.76,5.76,0,0,0-5.61,1.48,11.34,11.34,0,0,0-3.3,5.62,11.14,11.14,0,0,0,0,7,5.76,5.76,0,0,0,9.2,2.65,11.42,11.42,0,0,0,3.6-6,11.22,11.22,0,0,0,.05-7A5.67,5.67,0,0,0,603.43,584Z"></path></svg>